<?xml version="1.0" encoding="UTF-8"?>
<svg version="1.1" xmlns="http://www.w3.org/2000/svg" width="670" height="569">
<path d="M0 0 C221.1 0 442.2 0 670 0 C670 187.77 670 375.54 670 569 C448.9 569 227.8 569 0 569 C0 381.23 0 193.46 0 0 Z " fill="#FEFEFE" transform="translate(0,0)"/>
<path d="M0 0 C1.41872807 4.2561842 -0.2398941 7.31900398 -1.6875 11.375 C-3.46357716 16.4584088 -5.18712696 21.54501755 -6.7578125 26.69628906 C-8.3687671 31.95407853 -9.99600633 37.20639373 -11.63793945 42.45458984 C-11.8733847 43.20717197 -12.10882996 43.9597541 -12.35140991 44.73514175 C-12.847131 46.31917909 -13.34295066 47.90318559 -13.83886147 49.48716354 C-14.63539543 52.03157811 -15.43143497 54.57614691 -16.2273407 57.12075806 C-18.48766679 64.34717154 -20.74845874 71.573439 -23.01049805 78.79931641 C-31.40171074 105.58463166 -31.40171074 105.58463166 -39.60961914 132.42651367 C-41.77260637 139.57903121 -44.04743706 146.69658374 -46.30908203 153.81835938 C-47.6096309 157.9249688 -48.89227584 162.03716404 -50.17407227 166.1496582 C-51.20415272 169.45444789 -52.23817098 172.75788082 -53.28125 176.05859375 C-55.99696001 184.66830108 -58.56824468 193.30545583 -61 202 C-58.69 202 -56.38 202 -54 202 C-54.05365723 201.38648682 -54.10731445 200.77297363 -54.16259766 200.14086914 C-54.58075042 191.31849154 -52.12220569 183.69189934 -49.375 175.4375 C-48.94256571 174.0987731 -48.51157004 172.75958062 -48.08203125 171.41992188 C-44.7968725 161.25554265 -41.37784201 151.13352603 -38 141 C78.82 141 195.64 141 316 141 C316 167.46774194 316 167.46774194 308.83984375 175.08984375 C308.36401855 175.56405762 307.88819336 176.03827148 307.39794922 176.52685547 C305.02451884 179.02795203 303.1385503 181.85331747 301.1875 184.6875 C300.3701227 185.84360428 299.55105953 186.99851814 298.73046875 188.15234375 C298.08537354 189.06282471 298.08537354 189.06282471 297.42724609 189.99169922 C294.6338138 193.92238243 291.81769269 197.83668935 289 201.75 C288.43563232 202.53721436 287.87126465 203.32442871 287.28979492 204.13549805 C286.49665894 205.23631714 286.49665894 205.23631714 285.6875 206.359375 C285.21699219 207.01389648 284.74648438 207.66841797 284.26171875 208.34277344 C283 210 283 210 281 212 C278.375 212.125 278.375 212.125 276 212 C276.12834229 213.09272217 276.12834229 213.09272217 276.25927734 214.20751953 C276.87310679 223.49224722 274.00756098 228.52081155 268.625 235.875 C267.53312378 237.43492676 267.53312378 237.43492676 266.41918945 239.02636719 C264.30452179 242.03641357 262.15587997 245.01940134 260 248 C258.93613829 249.5059342 257.8745987 251.01351422 256.81640625 252.5234375 C254.57701001 255.70674443 252.30517986 258.86382863 250 262 C249.57106445 262.70503662 249.14212891 263.41007324 248.70019531 264.13647461 C247 266 247 266 244.64672852 266.4699707 C243.73334717 266.45538818 242.81996582 266.44080566 241.87890625 266.42578125 C240.35040039 266.41321289 240.35040039 266.41321289 238.79101562 266.40039062 C237.19290039 266.35688477 237.19290039 266.35688477 235.5625 266.3125 C234.53189453 266.30283203 233.50128906 266.29316406 232.43945312 266.28320312 C226.26726157 266.19442238 220.16252387 265.79929917 214.01635742 265.24731445 C207.67237692 264.72716453 201.30884358 264.50246443 194.94604492 264.36157227 C189.81108586 264.24174806 184.88940227 264.0733503 179.83984375 263.09375 C175.24276895 262.33119975 171.23864643 261.72620716 167 264 C161.18370986 269.96714493 157.47597384 277.61890018 153.64160156 284.93603516 C151.4664726 288.99580143 149.00025828 292.80306119 146.4375 296.625 C145.55505089 297.97640403 144.67487609 299.32929564 143.796875 300.68359375 C143.34892578 301.37308105 142.90097656 302.06256836 142.43945312 302.77294922 C139.66630449 307.06342783 136.92801525 311.37613271 134.1875 315.6875 C133.59686768 316.61667236 133.00623535 317.54584473 132.39770508 318.50317383 C131.1948003 320.39620301 129.99208308 322.28935138 128.78955078 324.18261719 C120.88012219 336.63484174 112.95570336 349.07728253 105 361.5 C99.68042405 369.80799263 94.36488617 378.11852315 89.0625 386.4375 C88.1662793 387.84128906 88.1662793 387.84128906 87.25195312 389.2734375 C86.70603516 390.13066406 86.16011719 390.98789062 85.59765625 391.87109375 C85.11820557 392.62318115 84.63875488 393.37526855 84.14477539 394.15014648 C82.96603181 395.9926106 82.96603181 395.9926106 82 398 C83.14138428 397.96970703 84.28276855 397.93941406 85.45874023 397.90820312 C106.64177277 397.35103155 127.8078006 396.81337593 149 397 C150.48266786 420.87665504 150.48266786 420.87665504 145.6875 426.6875 C144.15133009 428.1531038 142.58631799 429.58882753 141 431 C139.12476494 433.09412867 137.35002006 435.26843417 135.5625 437.4375 C134.61746343 438.5521211 133.67085931 439.66541512 132.72265625 440.77734375 C130.28064733 443.65728912 127.88319791 446.57109667 125.5 449.5 C122.19375926 453.5633048 118.83183571 457.57299309 115.4375 461.5625 C112.23260809 465.33088939 109.07312306 469.12246028 106 473 C102.92686803 476.87755097 99.7671728 480.66891481 96.5625 484.4375 C91.63601075 490.23406334 86.78357507 496.08449307 82 502 C81.49194824 502.62825684 80.98389648 503.25651367 80.46044922 503.90380859 C78.804281 505.95455902 77.15155119 508.00803001 75.5 510.0625 C74.97092041 510.71847168 74.44184082 511.37444336 73.89672852 512.05029297 C71.19375405 515.35557829 71.19375405 515.35557829 69 519 C68.34 518.67 67.68 518.34 67 518 C67.35827881 517.4652002 67.71655762 516.93040039 68.08569336 516.37939453 C69.70416398 513.96206509 71.32085235 511.54354893 72.9375 509.125 C73.50146484 508.28324219 74.06542969 507.44148438 74.64648438 506.57421875 C75.45375977 505.36572266 75.45375977 505.36572266 76.27734375 504.1328125 C76.77484131 503.38918457 77.27233887 502.64555664 77.78491211 501.87939453 C79.03553216 500.02065406 79.03553216 500.02065406 80 498 C78.35 498 76.7 498 75 498 C75.63134396 492.60330641 77.4150673 487.99223713 79.4375 483 C80.06254276 481.43803749 80.68626927 479.87554753 81.30859375 478.3125 C81.58501709 477.62800781 81.86144043 476.94351562 82.14624023 476.23828125 C83.18197399 473.52292322 84.08098348 470.75704956 85 468 C50.35 468 15.7 468 -20 468 C-20.33 462.39 -20.66 456.78 -21 451 C-21.27956543 452.21486084 -21.55913086 453.42972168 -21.84716797 454.68139648 C-23.70499819 460.2968023 -25.9556984 464.68830634 -31 468 C-42.39826044 470.91651764 -54.8073888 469.67233634 -66.45379639 469.16729736 C-70.91055121 468.99244878 -75.36891944 468.91555784 -79.828125 468.83007812 C-88.55656863 468.64847929 -97.27705678 468.35894344 -106 468 C-106.97382988 452.69076344 -107.67806089 441.41260094 -97.6875 429.0625 C-96.84253275 427.92728059 -96.00408172 426.78718493 -95.171875 425.64257812 C-93.53930767 423.40450963 -91.88494903 421.1863093 -90.20849609 418.98095703 C-87.35819752 415.13371565 -84.90293899 411.1353353 -82.5 407 C-77.57809978 398.73664406 -72.23062942 390.76944406 -66.87060547 382.78759766 C-62.14733618 375.7522385 -57.48069169 368.6935022 -53 361.5 C-48.19534806 353.79192082 -43.18288714 346.23076109 -38.125 338.6875 C-31.37682321 328.62138906 -24.7872001 318.46726771 -18.3125 308.22265625 C-14.49548463 302.1869443 -10.60323391 296.2011121 -6.69995117 290.22094727 C-2.09861354 283.1687227 2.44596904 276.08404816 7 269 C-48.44 269 -103.88 269 -161 269 C-161 243.99423416 -161 243.99423416 -153.46484375 234.6015625 C-149.27992744 229.16518474 -145.71044094 223.3666152 -142.0625 217.5625 C-136.8695399 209.41592546 -131.59892489 201.32885365 -126.21582031 193.30688477 C-122.58305554 187.89032674 -119.02325622 182.43065273 -115.49047852 176.94848633 C-110.57218656 169.32179598 -105.60031963 161.73032816 -100.62817383 154.13867188 C-97.43502431 149.2610504 -94.24558907 144.38125084 -91.07299805 139.49023438 C-85.37344708 130.70404469 -79.65171466 121.93358659 -73.87890625 113.1953125 C-73.27890808 112.28697159 -72.67890991 111.37863068 -72.06072998 110.44276428 C-69.61913794 106.74763011 -67.1767758 103.05300957 -64.73217773 99.35986328 C-56.72745931 87.2635117 -48.84410197 75.09932105 -41.07836914 62.84814453 C-37.57752194 57.32648525 -34.02321699 51.84196512 -30.4375 46.375 C-29.18212119 44.45584067 -27.92691626 42.53656759 -26.671875 40.6171875 C-26.06021484 39.68229492 -25.44855469 38.74740234 -24.81835938 37.78417969 C-22.4814657 34.20604657 -20.15604406 30.62054289 -17.83105469 27.03466797 C-11.95703109 17.97582765 -6.0170541 8.96445983 0 0 Z " fill="#C7C0DE" transform="translate(265,18)"/>
<path d="M0 0 C0.66 0 1.32 0 2 0 C3.82360455 22.9465563 3.82360455 22.9465563 -1.06811523 29.625 C-2.84503367 31.66448942 -4.68617958 33.61747215 -6.60205078 35.52685547 C-8.97548116 38.02795203 -10.8614497 40.85331747 -12.8125 43.6875 C-13.6298773 44.84360428 -14.44894047 45.99851814 -15.26953125 47.15234375 C-15.91462646 48.06282471 -15.91462646 48.06282471 -16.57275391 48.99169922 C-19.3661862 52.92238243 -22.18230731 56.83668935 -25 60.75 C-25.56436768 61.53721436 -26.12873535 62.32442871 -26.71020508 63.13549805 C-27.50334106 64.23631714 -27.50334106 64.23631714 -28.3125 65.359375 C-29.01826172 66.34115723 -29.01826172 66.34115723 -29.73828125 67.34277344 C-31 69 -31 69 -33 71 C-35.625 71.125 -35.625 71.125 -38 71 C-37.87165771 72.09272217 -37.87165771 72.09272217 -37.74072266 73.20751953 C-37.12689321 82.49224722 -39.99243902 87.52081155 -45.375 94.875 C-46.46687622 96.43492676 -46.46687622 96.43492676 -47.58081055 98.02636719 C-49.69547821 101.03641357 -51.84412003 104.01940134 -54 107 C-55.06386171 108.5059342 -56.1254013 110.01351422 -57.18359375 111.5234375 C-59.42298999 114.70674443 -61.69482014 117.86382863 -64 121 C-64.42893555 121.70503662 -64.85787109 122.41007324 -65.29980469 123.13647461 C-67 125 -67 125 -69.35327148 125.4699707 C-70.26665283 125.45538818 -71.18003418 125.44080566 -72.12109375 125.42578125 C-73.14009766 125.41740234 -74.15910156 125.40902344 -75.20898438 125.40039062 C-76.27439453 125.37138672 -77.33980469 125.34238281 -78.4375 125.3125 C-79.46810547 125.30283203 -80.49871094 125.29316406 -81.56054688 125.28320312 C-87.73273843 125.19442238 -93.83747613 124.79929917 -99.98364258 124.24731445 C-106.32762308 123.72716453 -112.69115642 123.50246443 -119.05395508 123.36157227 C-124.18891414 123.24174806 -129.11059773 123.0733503 -134.16015625 122.09375 C-138.75723105 121.33119975 -142.76135357 120.72620716 -147 123 C-152.81629014 128.96714493 -156.52402616 136.61890018 -160.35839844 143.93603516 C-162.5335274 147.99580143 -164.99974172 151.80306119 -167.5625 155.625 C-168.44494911 156.97640403 -169.32512391 158.32929564 -170.203125 159.68359375 C-170.65107422 160.37308105 -171.09902344 161.06256836 -171.56054688 161.77294922 C-174.33369551 166.06342783 -177.07198475 170.37613271 -179.8125 174.6875 C-180.40313232 175.61667236 -180.99376465 176.54584473 -181.60229492 177.50317383 C-182.8051997 179.39620301 -184.00791692 181.28935138 -185.21044922 183.18261719 C-193.11987781 195.63484174 -201.04429664 208.07728253 -209 220.5 C-214.31957595 228.80799263 -219.63511383 237.11852315 -224.9375 245.4375 C-225.8337207 246.84128906 -225.8337207 246.84128906 -226.74804688 248.2734375 C-227.29396484 249.13066406 -227.83988281 249.98789062 -228.40234375 250.87109375 C-228.88179443 251.62318115 -229.36124512 252.37526855 -229.85522461 253.15014648 C-231.03396819 254.9926106 -231.03396819 254.9926106 -232 257 C-230.85861572 256.96970703 -229.71723145 256.93941406 -228.54125977 256.90820312 C-207.35822723 256.35103155 -186.1921994 255.81337593 -165 256 C-163.51733214 279.87665504 -163.51733214 279.87665504 -168.3125 285.6875 C-169.84866991 287.1531038 -171.41368201 288.58882753 -173 290 C-174.87523506 292.09412867 -176.64997994 294.26843417 -178.4375 296.4375 C-179.38253657 297.5521211 -180.32914069 298.66541512 -181.27734375 299.77734375 C-183.71935267 302.65728912 -186.11680209 305.57109667 -188.5 308.5 C-191.80624074 312.5633048 -195.16816429 316.57299309 -198.5625 320.5625 C-201.76739191 324.33088939 -204.92687694 328.12246028 -208 332 C-211.07313197 335.87755097 -214.2328272 339.66891481 -217.4375 343.4375 C-222.36398925 349.23406334 -227.21642493 355.08449307 -232 361 C-232.50805176 361.62825684 -233.01610352 362.25651367 -233.53955078 362.90380859 C-235.195719 364.95455902 -236.84844881 367.00803001 -238.5 369.0625 C-239.02907959 369.71847168 -239.55815918 370.37444336 -240.10327148 371.05029297 C-242.80624595 374.35557829 -242.80624595 374.35557829 -245 378 C-245.66 377.67 -246.32 377.34 -247 377 C-246.64172119 376.4652002 -246.28344238 375.93040039 -245.91430664 375.37939453 C-244.29583602 372.96206509 -242.67914765 370.54354893 -241.0625 368.125 C-240.49853516 367.28324219 -239.93457031 366.44148438 -239.35351562 365.57421875 C-238.54624023 364.36572266 -238.54624023 364.36572266 -237.72265625 363.1328125 C-237.22515869 362.38918457 -236.72766113 361.64555664 -236.21508789 360.87939453 C-234.96446784 359.02065406 -234.96446784 359.02065406 -234 357 C-235.65 357 -237.3 357 -239 357 C-238.36865604 351.60330641 -236.5849327 346.99223713 -234.5625 342 C-233.93745724 340.43803749 -233.31373073 338.87554753 -232.69140625 337.3125 C-232.41498291 336.62800781 -232.13855957 335.94351562 -231.85375977 335.23828125 C-230.81802601 332.52292322 -229.91901652 329.75704956 -229 327 C-263.65 327 -298.3 327 -334 327 C-334.33 321.39 -334.66 315.78 -335 310 C-335.27956543 311.21486084 -335.55913086 312.42972168 -335.84716797 313.68139648 C-337.70499819 319.2968023 -339.9556984 323.68830634 -345 327 C-356.39826044 329.91651764 -368.8073888 328.67233634 -380.45379639 328.16729736 C-384.91055121 327.99244878 -389.36891944 327.91555784 -393.828125 327.83007812 C-402.55707364 327.64846878 -411.27617521 327.34990295 -420 327 C-420 319.41 -420 311.82 -420 304 C-394.92 304 -369.84 304 -344 304 C-343.67 302.68 -343.34 301.36 -343 300 C-342.19772452 298.43852075 -341.33990383 296.90501785 -340.4453125 295.39453125 C-339.9186499 294.50233887 -339.3919873 293.61014648 -338.84936523 292.69091797 C-337.99580444 291.26610107 -337.99580444 291.26610107 -337.125 289.8125 C-336.53855713 288.82652832 -335.95211426 287.84055664 -335.34790039 286.82470703 C-331.39927655 280.22639797 -327.30514288 273.74247344 -323.08520508 267.31542969 C-319.69878669 262.13813452 -316.47738264 256.8777918 -313.3125 251.5625 C-303.59425263 235.24257428 -293.62004997 219.07887254 -283.43530273 203.04614258 C-278.96004184 195.98101416 -274.61710202 188.83774806 -270.28076172 181.68676758 C-266.3878422 175.26970857 -262.45981183 168.87597843 -258.5 162.5 C-253.96134792 155.18983642 -249.46615316 147.85467622 -245 140.5 C-240.0494838 132.34929462 -235.05930788 124.22473556 -230.03295898 116.12060547 C-219.81565285 99.64564126 -209.66072132 83.13244888 -199.60375977 66.55908203 C-199.07065186 65.68106934 -198.53754395 64.80305664 -197.98828125 63.8984375 C-197.30052612 62.76414307 -197.30052612 62.76414307 -196.59887695 61.60693359 C-196.07124756 60.74664551 -195.54361816 59.88635742 -195 59 C-194.75841848 58.34626246 -194.51683697 57.69252493 -194.2679348 57.01897717 C-193.1263284 54.43996213 -192.1216527 52.87995336 -190 51 C-185.1174546 49.85421915 -180.24894985 50.144947 -175.27075195 50.32983398 C-173.74937357 50.3566578 -172.22792492 50.37972026 -170.70643616 50.39930725 C-167.43222014 50.4482885 -164.15974665 50.52142945 -160.88643837 50.61263847 C-155.70428305 50.75443087 -150.52256784 50.82734939 -145.33891296 50.88819885 C-130.60089097 51.07196218 -115.86534327 51.35277376 -101.13012695 51.69213867 C-92.98929325 51.8790158 -84.84932494 52.01118048 -76.70667428 52.08596474 C-72.4005126 52.12830715 -68.09917554 52.19997974 -63.79503822 52.34142876 C-47.16860251 53.69607534 -47.16860251 53.69607534 -31.63489342 49.58625984 C-28.12031453 46.23683549 -26.31379298 42.52291629 -24.77428436 37.97632599 C-23.42330767 34.52801877 -21.20508379 31.6716987 -19.04296875 28.69140625 C-18.22893094 27.50303483 -17.4179421 26.31256347 -16.61132812 25.11914062 C-15.39000112 23.32649604 -14.16818272 21.53419052 -12.94555664 19.74243164 C-11.7266825 17.95550122 -10.50946097 16.16745891 -9.29296875 14.37890625 C-8.7196431 13.5378685 -8.7196431 13.5378685 -8.13473511 12.67984009 C-6.01485751 9.5542054 -3.9949092 6.38971158 -2.05078125 3.15234375 C-1.37402344 2.11207031 -0.69726562 1.07179687 0 0 Z " fill="#C2BFDC" transform="translate(579,159)"/>
<path d="M0 0 C1.41872807 4.2561842 -0.2398941 7.31900398 -1.6875 11.375 C-3.46357716 16.4584088 -5.18712696 21.54501755 -6.7578125 26.69628906 C-8.3687671 31.95407853 -9.99600633 37.20639373 -11.63793945 42.45458984 C-11.8733847 43.20717197 -12.10882996 43.9597541 -12.35140991 44.73514175 C-12.847131 46.31917909 -13.34295066 47.90318559 -13.83886147 49.48716354 C-14.63539543 52.03157811 -15.43143497 54.57614691 -16.2273407 57.12075806 C-18.48766679 64.34717154 -20.74845874 71.573439 -23.01049805 78.79931641 C-31.40171074 105.58463166 -31.40171074 105.58463166 -39.60961914 132.42651367 C-41.77260637 139.57903121 -44.04743706 146.69658374 -46.30908203 153.81835938 C-47.6096309 157.9249688 -48.89227584 162.03716404 -50.17407227 166.1496582 C-51.20415272 169.45444789 -52.23817098 172.75788082 -53.28125 176.05859375 C-55.99696001 184.66830108 -58.56824468 193.30545583 -61 202 C-58.69 202 -56.38 202 -54 202 C-54 198.7 -54 195.4 -54 192 C-17.37 192 19.26 192 57 192 C53.14571949 201.63570128 53.14571949 201.63570128 50 204 C45.9374836 204.603816 42.07613037 204.40956334 38 204 C38.19142578 205.77890625 38.19142578 205.77890625 38.38671875 207.59375 C39.34047935 220.38504976 36.62076085 227.07745138 28.66455078 236.88427734 C25.65161816 240.713857 22.97595746 244.77640791 20.25 248.8125 C19.73219971 249.56466797 19.21439941 250.31683594 18.6809082 251.09179688 C17.91846802 252.20071289 17.91846802 252.20071289 17.140625 253.33203125 C16.64598535 254.03060588 16.15134569 254.72918051 15.64171696 255.44892406 C13.92871562 257.97200702 13.92871562 257.97200702 12.73216152 260.81820393 C11.12490602 264.10730434 9.63579124 266.44349615 7 269 C1.61816979 270.61650498 -3.66233033 270.39440514 -9.21655273 270.2487793 C-10.8727345 270.24567406 -12.52893139 270.24742291 -14.18510437 270.25364685 C-18.66935294 270.25679733 -23.15035087 270.19223532 -27.63384509 270.11533332 C-32.3235228 270.04646497 -37.01327905 270.04009943 -41.7033844 270.02705383 C-50.57910991 269.99289363 -59.45334114 269.90266976 -68.32840925 269.79220945 C-78.43457638 269.66916321 -88.54081572 269.60875424 -98.6475457 269.55355966 C-119.43253048 269.43864828 -140.21617103 269.24522751 -161 269 C-161.1321495 265.50687653 -161.21112151 262.01440657 -161.28125 258.51953125 C-161.31895508 257.53988403 -161.35666016 256.56023682 -161.39550781 255.55090332 C-161.52638654 246.83474374 -158.85159686 241.31622131 -153.46484375 234.6015625 C-149.27992744 229.16518474 -145.71044094 223.3666152 -142.0625 217.5625 C-136.8695399 209.41592546 -131.59892489 201.32885365 -126.21582031 193.30688477 C-122.58305554 187.89032674 -119.02325622 182.43065273 -115.49047852 176.94848633 C-110.57218656 169.32179598 -105.60031963 161.73032816 -100.62817383 154.13867188 C-97.43502431 149.2610504 -94.24558907 144.38125084 -91.07299805 139.49023438 C-85.37344708 130.70404469 -79.65171466 121.93358659 -73.87890625 113.1953125 C-73.27890808 112.28697159 -72.67890991 111.37863068 -72.06072998 110.44276428 C-69.61913794 106.74763011 -67.1767758 103.05300957 -64.73217773 99.35986328 C-56.72745931 87.2635117 -48.84410197 75.09932105 -41.07836914 62.84814453 C-37.57752194 57.32648525 -34.02321699 51.84196512 -30.4375 46.375 C-29.18212119 44.45584067 -27.92691626 42.53656759 -26.671875 40.6171875 C-26.06021484 39.68229492 -25.44855469 38.74740234 -24.81835938 37.78417969 C-22.4814657 34.20604657 -20.15604406 30.62054289 -17.83105469 27.03466797 C-11.95703109 17.97582765 -6.0170541 8.96445983 0 0 Z " fill="#CBA8CE" transform="translate(265,18)"/>
<path d="M0 0 C0.66 0 1.32 0 2 0 C3.82360455 22.9465563 3.82360455 22.9465563 -1.06811523 29.625 C-2.84503367 31.66448942 -4.68617958 33.61747215 -6.60205078 35.52685547 C-8.97548116 38.02795203 -10.8614497 40.85331747 -12.8125 43.6875 C-13.6298773 44.84360428 -14.44894047 45.99851814 -15.26953125 47.15234375 C-15.91462646 48.06282471 -15.91462646 48.06282471 -16.57275391 48.99169922 C-19.3661862 52.92238243 -22.18230731 56.83668935 -25 60.75 C-25.56436768 61.53721436 -26.12873535 62.32442871 -26.71020508 63.13549805 C-27.50334106 64.23631714 -27.50334106 64.23631714 -28.3125 65.359375 C-29.01826172 66.34115723 -29.01826172 66.34115723 -29.73828125 67.34277344 C-31 69 -31 69 -33 71 C-35.625 71.125 -35.625 71.125 -38 71 C-37.87165771 72.09272217 -37.87165771 72.09272217 -37.74072266 73.20751953 C-37.12689321 82.49224722 -39.99243902 87.52081155 -45.375 94.875 C-46.46687622 96.43492676 -46.46687622 96.43492676 -47.58081055 98.02636719 C-49.69547821 101.03641357 -51.84412003 104.01940134 -54 107 C-55.06386171 108.5059342 -56.1254013 110.01351422 -57.18359375 111.5234375 C-59.42298999 114.70674443 -61.69482014 117.86382863 -64 121 C-64.42893555 121.70503662 -64.85787109 122.41007324 -65.29980469 123.13647461 C-67 125 -67 125 -69.35327148 125.4699707 C-70.26665283 125.45538818 -71.18003418 125.44080566 -72.12109375 125.42578125 C-73.14009766 125.41740234 -74.15910156 125.40902344 -75.20898438 125.40039062 C-76.27439453 125.37138672 -77.33980469 125.34238281 -78.4375 125.3125 C-79.46810547 125.30283203 -80.49871094 125.29316406 -81.56054688 125.28320312 C-87.73273843 125.19442238 -93.83747613 124.79929917 -99.98364258 124.24731445 C-106.32762308 123.72716453 -112.69115642 123.50246443 -119.05395508 123.36157227 C-124.18891414 123.24174806 -129.11059773 123.0733503 -134.16015625 122.09375 C-138.75723105 121.33119975 -142.76135357 120.72620716 -147 123 C-152.81629014 128.96714493 -156.52402616 136.61890018 -160.35839844 143.93603516 C-162.5335274 147.99580143 -164.99974172 151.80306119 -167.5625 155.625 C-168.44494911 156.97640403 -169.32512391 158.32929564 -170.203125 159.68359375 C-170.65107422 160.37308105 -171.09902344 161.06256836 -171.56054688 161.77294922 C-174.33369551 166.06342783 -177.07198475 170.37613271 -179.8125 174.6875 C-180.40313232 175.61667236 -180.99376465 176.54584473 -181.60229492 177.50317383 C-182.8051997 179.39620301 -184.00791692 181.28935138 -185.21044922 183.18261719 C-193.78517487 196.68225348 -202.38165476 210.16768792 -211.0078125 223.63452148 C-216.2415946 231.80783379 -221.45654717 239.99299384 -226.66015625 248.18554688 C-227.47419922 249.46655273 -227.47419922 249.46655273 -228.3046875 250.7734375 C-229.0160083 251.89371338 -229.0160083 251.89371338 -229.74169922 253.03662109 C-230.8095886 254.7028932 -231.90219093 256.35328639 -233 258 C-235.8203125 258.29296875 -235.8203125 258.29296875 -239.125 258.1875 C-240.22070312 258.16042969 -241.31640625 258.13335937 -242.4453125 258.10546875 C-243.70988281 258.05326172 -243.70988281 258.05326172 -245 258 C-243.29142118 252.82217271 -240.2406979 248.56631989 -237.25 244.0625 C-236.06806407 242.26364227 -234.88710868 240.46413998 -233.70703125 238.6640625 C-233.09553223 237.73239258 -232.4840332 236.80072266 -231.85400391 235.84082031 C-228.84479536 231.22992346 -225.8890475 226.58544779 -222.9375 221.9375 C-222.35484375 221.02025146 -221.7721875 220.10300293 -221.171875 219.15795898 C-219.44652251 216.43952012 -217.722861 213.72001847 -216 211 C-215.46455566 210.1548584 -214.92911133 209.3097168 -214.37744141 208.43896484 C-209.22801125 200.30736238 -204.09571698 192.16537689 -199 184 C-189.95064606 169.49931524 -180.78530219 155.07208435 -171.6015625 140.65625 C-169.13449459 136.78348001 -166.67134453 132.90825502 -164.2109375 129.03125 C-163.58944824 128.05260986 -162.96795898 127.07396973 -162.32763672 126.06567383 C-161.14879953 124.20923359 -159.97068538 122.35233392 -158.79345703 120.49487305 C-158.25317871 119.64449463 -157.71290039 118.79411621 -157.15625 117.91796875 C-156.69025391 117.18344482 -156.22425781 116.4489209 -155.74414062 115.69213867 C-155.16857422 114.80373291 -154.59300781 113.91532715 -154 113 C-153.69880753 112.23977036 -153.39761505 111.47954071 -153.08729553 110.6962738 C-151.68675513 107.74462854 -150.56580721 106.05051361 -148 104 C-142.92315775 103.07082474 -138.0793419 103.31938029 -132.94729424 103.65973473 C-130.33425707 103.82657068 -127.72642832 103.92598191 -125.10939026 104.00654602 C-117.67768743 104.24404134 -110.25332077 104.57466102 -102.83081055 105.0144043 C-83.33888977 107.10761491 -83.33888977 107.10761491 -65.10760498 102.19689941 C-60.59908744 97.66513017 -58.15233643 92.42415763 -55.96389771 86.48269653 C-54.62845388 83.04301435 -52.7996007 80.3376201 -50.703125 77.3046875 C-49.55108524 75.49542681 -48.39998936 73.68556464 -47.25 71.875 C-46.64929688 70.93269531 -46.04859375 69.99039063 -45.4296875 69.01953125 C-44.85992188 68.12363281 -44.29015625 67.22773438 -43.703125 66.3046875 C-42.95530762 65.1288208 -42.95530762 65.1288208 -42.19238281 63.92919922 C-40.97310584 62.02107213 -40.97310584 62.02107213 -40 60 C-54.65819945 59.86814703 -69.31641093 59.73770552 -83.97463703 59.60884857 C-90.78395989 59.54895815 -97.59327843 59.48864211 -104.40258789 59.42724609 C-110.99678296 59.36779094 -117.59098873 59.30962497 -124.18520164 59.25218201 C-126.67765861 59.23027139 -129.17011207 59.20795734 -131.66256142 59.18519592 C-133.44079827 59.16899452 -133.44079827 59.16899452 -135.25495911 59.15246582 C-136.42427066 59.14148109 -137.59358221 59.13049637 -138.79832745 59.11917877 C-141.10128242 59.10110011 -143.40429231 59.08893221 -145.70731068 59.0830307 C-151.6505919 59.06508348 -157.56870939 58.94779764 -163.50643921 58.68115234 C-164.73233104 58.64151619 -165.95822287 58.60188004 -167.22126293 58.56104279 C-169.55617961 58.48471012 -171.8903325 58.37478541 -174.22170734 58.22527313 C-180.19577094 58.01825981 -180.19577094 58.01825981 -185.22656536 60.86954117 C-188.29156911 64.67046478 -190.6677167 68.68605346 -192.46484375 73.234375 C-194.92853466 79.0255598 -198.03956828 84.15410015 -201.4375 89.4375 C-202.53277144 91.19485797 -203.62521265 92.95398299 -204.71484375 94.71484375 C-205.25737793 95.58737793 -205.79991211 96.45991211 -206.35888672 97.35888672 C-209.07846593 101.73562102 -211.78881059 106.1180656 -214.5 110.5 C-217.71360704 115.69217324 -220.92780407 120.88397785 -224.14453125 126.07421875 C-230.11275386 135.70610276 -236.06417931 145.34810971 -242 155 C-246.8854551 162.94395235 -251.77725401 170.88384412 -256.6875 178.8125 C-257.21504883 179.66448975 -257.74259766 180.51647949 -258.28613281 181.39428711 C-260.88681387 185.59295288 -263.49040773 189.78978432 -266.09765625 193.984375 C-272.68926669 204.59848954 -279.19758268 215.26061761 -285.66677856 225.94958496 C-290.5669195 234.04179049 -295.53862687 242.0823763 -300.62011719 250.06225586 C-304.42922169 256.05790043 -308.12875289 262.11384985 -311.8125 268.1875 C-319.11203471 280.18412661 -326.55729267 292.09166827 -334 304 C-296.38 304 -258.76 304 -220 304 C-221.59191332 311.95956662 -225.05795226 319.43473438 -228 327 C-262.98 327 -297.96 327 -334 327 C-334.33 321.39 -334.66 315.78 -335 310 C-335.27956543 311.21486084 -335.55913086 312.42972168 -335.84716797 313.68139648 C-337.70499819 319.2968023 -339.9556984 323.68830634 -345 327 C-356.39826044 329.91651764 -368.8073888 328.67233634 -380.45379639 328.16729736 C-384.91055121 327.99244878 -389.36891944 327.91555784 -393.828125 327.83007812 C-402.55707364 327.64846878 -411.27617521 327.34990295 -420 327 C-420 319.41 -420 311.82 -420 304 C-394.92 304 -369.84 304 -344 304 C-343.67 302.68 -343.34 301.36 -343 300 C-342.19772452 298.43852075 -341.33990383 296.90501785 -340.4453125 295.39453125 C-339.9186499 294.50233887 -339.3919873 293.61014648 -338.84936523 292.69091797 C-337.99580444 291.26610107 -337.99580444 291.26610107 -337.125 289.8125 C-336.53855713 288.82652832 -335.95211426 287.84055664 -335.34790039 286.82470703 C-331.39927655 280.22639797 -327.30514288 273.74247344 -323.08520508 267.31542969 C-319.69878669 262.13813452 -316.47738264 256.8777918 -313.3125 251.5625 C-303.59425263 235.24257428 -293.62004997 219.07887254 -283.43530273 203.04614258 C-278.96004184 195.98101416 -274.61710202 188.83774806 -270.28076172 181.68676758 C-266.3878422 175.26970857 -262.45981183 168.87597843 -258.5 162.5 C-253.96134792 155.18983642 -249.46615316 147.85467622 -245 140.5 C-240.0494838 132.34929462 -235.05930788 124.22473556 -230.03295898 116.12060547 C-219.81565285 99.64564126 -209.66072132 83.13244888 -199.60375977 66.55908203 C-199.07065186 65.68106934 -198.53754395 64.80305664 -197.98828125 63.8984375 C-197.30052612 62.76414307 -197.30052612 62.76414307 -196.59887695 61.60693359 C-196.07124756 60.74664551 -195.54361816 59.88635742 -195 59 C-194.75841848 58.34626246 -194.51683697 57.69252493 -194.2679348 57.01897717 C-193.1263284 54.43996213 -192.1216527 52.87995336 -190 51 C-185.1174546 49.85421915 -180.24894985 50.144947 -175.27075195 50.32983398 C-173.74937357 50.3566578 -172.22792492 50.37972026 -170.70643616 50.39930725 C-167.43222014 50.4482885 -164.15974665 50.52142945 -160.88643837 50.61263847 C-155.70428305 50.75443087 -150.52256784 50.82734939 -145.33891296 50.88819885 C-130.60089097 51.07196218 -115.86534327 51.35277376 -101.13012695 51.69213867 C-92.98929325 51.8790158 -84.84932494 52.01118048 -76.70667428 52.08596474 C-72.4005126 52.12830715 -68.09917554 52.19997974 -63.79503822 52.34142876 C-47.16860251 53.69607534 -47.16860251 53.69607534 -31.63489342 49.58625984 C-28.12031453 46.23683549 -26.31379298 42.52291629 -24.77428436 37.97632599 C-23.42330767 34.52801877 -21.20508379 31.6716987 -19.04296875 28.69140625 C-18.22893094 27.50303483 -17.4179421 26.31256347 -16.61132812 25.11914062 C-15.39000112 23.32649604 -14.16818272 21.53419052 -12.94555664 19.74243164 C-11.7266825 17.95550122 -10.50946097 16.16745891 -9.29296875 14.37890625 C-8.7196431 13.5378685 -8.7196431 13.5378685 -8.13473511 12.67984009 C-6.01485751 9.5542054 -3.9949092 6.38971158 -2.05078125 3.15234375 C-1.37402344 2.11207031 -0.69726562 1.07179687 0 0 Z " fill="#5C3F8C" transform="translate(579,159)"/>
<path d="M0 0 C1.61904937 -0.01467384 3.2383889 -0.00700776 4.85731506 0.01777649 C5.74246292 0.01558609 6.62761078 0.01339569 7.5395813 0.01113892 C10.47928242 0.00882011 13.4179905 0.03515969 16.3575592 0.06196594 C18.41285892 0.06689399 20.46816313 0.07019017 22.52346802 0.07192993 C26.84713439 0.07958626 31.17047172 0.10017214 35.49403381 0.13105774 C40.9793166 0.17021173 46.4643836 0.18860061 51.94979 0.19836712 C57.2315745 0.20846773 62.51330925 0.22825762 67.7950592 0.24946594 C69.26958211 0.25455956 69.26958211 0.25455956 70.77389336 0.25975609 C83.94479817 0.31448637 97.056507 0.71662313 110.20521545 1.48774719 C108.51653905 5.90232884 106.3009879 9.7624807 103.76771545 13.73774719 C103.11379822 14.7730658 103.11379822 14.7730658 102.44667053 15.82929993 C101.03875491 18.05260103 99.62321617 20.2708661 98.20521545 22.48774719 C97.72213928 23.24394348 97.23906311 24.00013977 96.74134827 24.7792511 C95.2954635 27.03862666 93.84534193 29.29520091 92.39271545 31.55024719 C91.94935852 32.23957336 91.50600159 32.92889954 91.04920959 33.63911438 C90.61987122 34.30201477 90.19053284 34.96491516 89.7481842 35.64790344 C89.19167175 36.50847351 89.19167175 36.50847351 88.62391663 37.38642883 C87.92165955 38.42658142 87.92165955 38.42658142 87.20521545 39.48774719 C86.88758082 40.05597702 86.56994619 40.62420685 86.24268627 41.20965576 C85.03114654 43.19997127 83.86592373 44.84899276 82.20521545 46.48774719 C79.23999588 47.05798566 77.44404638 47.16071575 74.53187561 46.90156555 C73.77495422 46.86403671 73.01803284 46.82650787 72.23817444 46.7878418 C70.59777429 46.70444675 68.95808388 46.60602796 67.31937027 46.49429131 C64.71045034 46.32540109 62.10539342 46.21614524 59.49266052 46.12509155 C52.06961476 45.86329315 44.65337587 45.55663602 37.24183655 45.0617218 C17.32100494 42.86950288 17.32100494 42.86950288 -0.92842102 48.75923157 C-5.9454677 54.34415646 -8.93097418 60.59646084 -11.5944519 67.559021 C-13.32725102 71.78692749 -15.75286233 75.38257352 -18.35728455 79.11274719 C-19.24304997 80.46543924 -20.12505939 81.82060482 -21.0018158 83.17915344 C-21.44992615 83.86896301 -21.8980365 84.55877258 -22.35972595 85.26948547 C-30.16246725 97.33068102 -37.81311299 109.48976463 -45.41978455 121.67524719 C-46.04111267 122.67008118 -46.6624408 123.66491516 -47.30259705 124.68989563 C-50.9405127 130.51538407 -50.9405127 130.51538407 -54.57310486 136.3441925 C-56.22660129 138.99856312 -57.88510788 141.64973791 -59.54478455 144.30024719 C-60.0341449 145.08875061 -60.52350525 145.87725403 -61.0276947 146.68965149 C-61.7090448 147.77500183 -61.7090448 147.77500183 -62.40415955 148.88227844 C-62.99148865 149.82357605 -62.99148865 149.82357605 -63.59068298 150.78388977 C-64.84309386 152.55610702 -66.21906129 154.00060853 -67.79478455 155.48774719 C-68.78478455 154.82774719 -69.77478455 154.16774719 -70.79478455 153.48774719 C-70.34949604 148.21459386 -69.71105291 143.47004495 -67.79478455 138.48774719 C-67.13478455 138.48774719 -66.47478455 138.48774719 -65.79478455 138.48774719 C-66.00103455 137.64212219 -66.20728455 136.79649719 -66.41978455 135.92524719 C-66.85823511 131.90611703 -66.17460687 129.26410302 -64.79478455 125.48774719 C-63.80478455 124.49774719 -63.80478455 124.49774719 -62.79478455 123.48774719 C-61.71331498 120.85148583 -60.70005411 118.22750751 -59.73228455 115.55024719 C-59.46351501 114.82128235 -59.19474548 114.0923175 -58.91783142 113.34126282 C-57.83753027 110.40208936 -56.7850563 107.45856246 -55.79478455 104.48774719 C-55.13478455 104.48774719 -54.47478455 104.48774719 -53.79478455 104.48774719 C-53.62978455 103.33274719 -53.46478455 102.17774719 -53.29478455 100.98774719 C-52.08855678 95.52122562 -49.59768571 90.79628072 -47.03990173 85.86909485 C-44.16508083 80.31481665 -41.61969435 74.670548 -39.229599 68.89179993 C-37.47578465 64.73882363 -35.28802352 61.22760565 -32.79478455 57.48774719 C-31.76525011 55.16729394 -30.76646774 52.83301396 -29.79478455 50.48774719 C-28.54289913 47.92565451 -27.22619218 45.39739062 -25.91978455 42.86274719 C-22.76805585 36.68234764 -20.12458783 30.50810189 -17.80259705 23.96430969 C-16.79478455 21.48774719 -16.79478455 21.48774719 -14.79478455 19.48774719 C-14.0146173 17.11307755 -13.3141891 14.77329756 -12.66978455 12.36274719 C-12.48802673 11.70403625 -12.30626892 11.04532532 -12.1190033 10.36665344 C-11.67163017 8.74198263 -11.23241919 7.11506826 -10.79478455 5.48774719 C-10.19665955 5.40524719 -9.59853455 5.32274719 -8.98228455 5.23774719 C-6.61678438 4.70231322 -6.61678438 4.70231322 -5.69882202 2.47024536 C-3.79478455 0.48774719 -3.79478455 0.48774719 0 0 Z " fill="#B1B6DA" transform="translate(428.79478454589844,217.5122528076172)"/>
<path d="M0 0 C36.63 0 73.26 0 111 0 C107.14571949 9.63570128 107.14571949 9.63570128 104 12 C99.9374836 12.603816 96.07613037 12.40956334 92 12 C92.19142578 13.77890625 92.19142578 13.77890625 92.38671875 15.59375 C93.34047935 28.38504976 90.62076085 35.07745138 82.66455078 44.88427734 C79.65161816 48.713857 76.97595746 52.77640791 74.25 56.8125 C73.73219971 57.56466797 73.21439941 58.31683594 72.6809082 59.09179688 C71.91846802 60.20071289 71.91846802 60.20071289 71.140625 61.33203125 C70.64598535 62.03060588 70.15134569 62.72918051 69.64171696 63.44892406 C67.92871562 65.97200702 67.92871562 65.97200702 66.73216152 68.81820393 C65.12490602 72.10730434 63.63579124 74.44349615 61 77 C55.61816979 78.61650498 50.33766967 78.39440514 44.78344727 78.2487793 C43.1272655 78.24567406 41.47106861 78.24742291 39.81489563 78.25364685 C35.33064706 78.25679733 30.84964913 78.19223532 26.36615491 78.11533332 C21.6764772 78.04646497 16.98672095 78.04009943 12.2966156 78.02705383 C3.42089009 77.99289363 -5.45334114 77.90266976 -14.32840925 77.79220945 C-24.43457638 77.66916321 -34.54081572 77.60875424 -44.6475457 77.55355966 C-65.43255303 77.43864816 -86.21612965 77.24300623 -107 77 C-107 70.07 -107 63.14 -107 56 C-51.56 56 3.88 56 61 56 C61.66 54.35 62.32 52.7 63 51 C63.91066749 49.53651629 64.87054702 48.10278781 65.87109375 46.69921875 C66.44053711 45.89411865 67.00998047 45.08901855 67.59667969 44.25952148 C68.20415039 43.41075439 68.81162109 42.5619873 69.4375 41.6875 C70.70240456 39.90145345 71.96671935 38.11498909 73.23046875 36.328125 C73.86259277 35.43673828 74.4947168 34.54535156 75.14599609 33.62695312 C77.88015421 29.75290238 80.56912444 25.84853716 83.25 21.9375 C83.7030249 21.2777417 84.1560498 20.6179834 84.62280273 19.93823242 C86.43088445 17.30218646 88.2268512 14.6597232 90 12 C89.18700439 12.00523682 88.37400879 12.01047363 87.53637695 12.01586914 C58.68167536 12.17272054 29.84719656 11.61878664 1 11 C-0.26086514 7.05979642 0 4.52419701 0 0 Z " fill="#5A3C8B" transform="translate(211,210)"/>
<path d="M0 0 C1.41872807 4.2561842 -0.2398941 7.31900398 -1.6875 11.375 C-3.46357716 16.4584088 -5.18712696 21.54501755 -6.7578125 26.69628906 C-8.3687671 31.95407853 -9.99600633 37.20639373 -11.63793945 42.45458984 C-11.8733847 43.20717197 -12.10882996 43.9597541 -12.35140991 44.73514175 C-12.847131 46.31917909 -13.34295066 47.90318559 -13.83886147 49.48716354 C-14.63539543 52.03157811 -15.43143497 54.57614691 -16.2273407 57.12075806 C-18.48766679 64.34717154 -20.74845874 71.573439 -23.01049805 78.79931641 C-31.40171074 105.58463166 -31.40171074 105.58463166 -39.60961914 132.42651367 C-41.77260637 139.57903121 -44.04743706 146.69658374 -46.30908203 153.81835938 C-48.01926065 159.21841456 -49.70027427 164.62765362 -51.38671875 170.03515625 C-52.01717302 172.0550193 -52.64901898 174.07444243 -53.28125 176.09375 C-53.70834009 177.45833122 -54.13542348 178.82291453 -54.5625 180.1875 C-54.7685083 180.84532471 -54.9745166 181.50314941 -55.18676758 182.1809082 C-56.88746271 187.61975153 -58.55200513 193.06932841 -60.203125 198.5234375 C-61 201 -61 201 -62 203 C-64.33294775 203.04241723 -66.66702567 203.04092937 -69 203 C-69.33 202.67 -69.66 202.34 -70 202 C-69.51864627 196.35149311 -68.38478636 191.0956639 -66.828125 185.65625 C-66.49944427 184.49252869 -66.49944427 184.49252869 -66.16412354 183.30529785 C-63.66235526 174.60023914 -60.72745587 166.05140038 -57.75 157.5 C-57.17678113 155.84114367 -56.6040335 154.18212443 -56.03173828 152.52294922 C-54.89361707 149.22616856 -53.752485 145.93045734 -52.60839844 142.63574219 C-51.15134027 138.43919802 -49.70296425 134.23971902 -48.2578125 130.0390625 C-47.46377978 127.73429295 -46.6695265 125.42959937 -45.875 123.125 C-45.52147461 122.09955078 -45.16794922 121.07410156 -44.80371094 120.01757812 C-44.4740332 119.06560547 -44.14435547 118.11363281 -43.8046875 117.1328125 C-43.52608887 116.32730957 -43.24749023 115.52180664 -42.96044922 114.69189453 C-41.94070287 111.83380524 -40.87506365 108.99533298 -39.80581665 106.15548706 C-38.4196212 102.44753892 -37.07924805 98.72309089 -35.734375 95 C-35.09227964 93.22634281 -34.45001986 91.45274513 -33.80761719 89.67919922 C-33.47225952 88.75330994 -33.13690186 87.82742065 -32.79138184 86.87347412 C-26.86079072 70.50925543 -20.86461004 54.17140064 -14.75 37.875 C-14.43639526 37.0382373 -14.12279053 36.20147461 -13.79968262 35.33935547 C-7.82821245 19.41648499 -7.82821245 19.41648499 -4.74755859 11.94360352 C-4.00086274 10.00224307 -3.417541 8.06959258 -2.875 6.0625 C-2 3 -2 3 0 0 Z " fill="#644492" transform="translate(265,18)"/>
<path d="M0 0 C0.33 0 0.66 0 1 0 C2.48266786 23.87665504 2.48266786 23.87665504 -2.3125 29.6875 C-3.84866991 31.1531038 -5.41368201 32.58882753 -7 34 C-8.87523506 36.09412867 -10.64997994 38.26843417 -12.4375 40.4375 C-13.38253657 41.5521211 -14.32914069 42.66541512 -15.27734375 43.77734375 C-17.71935267 46.65728912 -20.11680209 49.57109667 -22.5 52.5 C-25.80624074 56.5633048 -29.16816429 60.57299309 -32.5625 64.5625 C-35.76739191 68.33088939 -38.92687694 72.12246028 -42 76 C-45.07313197 79.87755097 -48.2328272 83.66891481 -51.4375 87.4375 C-56.36398925 93.23406334 -61.21642493 99.08449307 -66 105 C-66.50805176 105.62825684 -67.01610352 106.25651367 -67.53955078 106.90380859 C-69.195719 108.95455902 -70.84844881 111.00803001 -72.5 113.0625 C-73.29361938 114.04645752 -73.29361938 114.04645752 -74.10327148 115.05029297 C-76.80624595 118.35557829 -76.80624595 118.35557829 -79 122 C-79.66 121.67 -80.32 121.34 -81 121 C-77.81474299 116.20683916 -74.62685329 111.41543611 -71.4375 106.625 C-70.95035522 105.89314484 -70.46321045 105.16128967 -69.96130371 104.40725708 C-64.26302311 95.84973285 -58.54433148 87.30689586 -52.76953125 78.80078125 C-52.26292465 78.0541925 -51.75631805 77.30760376 -51.23435974 76.53839111 C-48.80816313 72.96426702 -46.37834698 69.3926807 -43.94311523 65.82470703 C-38.93329427 58.46460314 -34.06901417 51.04007136 -29.41473389 43.44895935 C-26.1616513 38.16254954 -22.59069848 33.16284297 -18.93359375 28.1484375 C-14.17484259 21.5152339 -9.74896096 14.64554085 -5.26904297 7.82226562 C-4.26768311 6.30536133 -4.26768311 6.30536133 -3.24609375 4.7578125 C-2.34395142 3.38326904 -2.34395142 3.38326904 -1.42358398 1.98095703 C-0.95380127 1.32724121 -0.48401855 0.67352539 0 0 Z " fill="#563A86" transform="translate(413,415)"/>
<path d="M0 0 C13.53 0 27.06 0 41 0 C40.01 0.33 39.02 0.66 38 1 C38.19142578 2.77890625 38.19142578 2.77890625 38.38671875 4.59375 C39.34047935 17.38504976 36.62076085 24.07745138 28.66455078 33.88427734 C25.65166904 37.71379233 22.97521268 41.77598423 20.25 45.8125 C19.70029541 46.61469971 19.15059082 47.41689941 18.58422852 48.2434082 C14.97961199 53.50515689 11.50573712 58.82356248 8.171875 64.26171875 C7.78515625 64.83535156 7.3984375 65.40898437 7 66 C6.67 66 6.34 66 6 66 C6 59.4 6 52.8 6 46 C-49.11 46 -104.22 46 -161 46 C-161 45.67 -161 45.34 -161 45 C-105.56 45 -50.12 45 7 45 C7.66 43.35 8.32 41.7 9 40 C9.91066749 38.53651629 10.87054702 37.10278781 11.87109375 35.69921875 C12.44053711 34.89411865 13.00998047 34.08901855 13.59667969 33.25952148 C14.20415039 32.41075439 14.81162109 31.5619873 15.4375 30.6875 C16.70240456 28.90145345 17.96671935 27.11498909 19.23046875 25.328125 C19.86259277 24.43673828 20.4947168 23.54535156 21.14599609 22.62695312 C23.88015421 18.75290238 26.56912444 14.84853716 29.25 10.9375 C29.7030249 10.2777417 30.1560498 9.6179834 30.62280273 8.93823242 C32.43088445 6.30218646 34.2268512 3.6597232 36 1 C24.12 1 12.24 1 0 1 C0 0.67 0 0.34 0 0 Z " fill="#634690" transform="translate(265,221)"/>
<path d="M0 0 C0.66 0.33 1.32 0.66 2 1 C-7.765625 15.6484375 -7.765625 15.6484375 -17.53125 30.296875 C-18.09529541 31.14294312 -18.65934082 31.98901123 -19.24047852 32.86071777 C-20.86901855 35.30352783 -20.86901855 35.30352783 -22.49755859 37.74633789 C-22.99336426 38.49004639 -23.48916992 39.23375488 -24 40 C-28 46 -28 46 -32 52 C-33.98 51.67 -35.96 51.34 -38 51 C-37.37053166 45.81710486 -35.75611925 41.42130055 -33.8125 36.625 C-33.17722069 35.03301637 -32.54313125 33.44055748 -31.91015625 31.84765625 C-31.59062988 31.04473145 -31.27110352 30.24180664 -30.94189453 29.41455078 C-30.03030142 27.07767781 -29.16064077 24.7302589 -28.30859375 22.37109375 C-28.04522217 21.64519043 -27.78185059 20.91928711 -27.51049805 20.17138672 C-27.01465818 18.79640607 -26.52493079 17.41920111 -26.04223633 16.03955078 C-23.8296877 9.95009803 -23.8296877 9.95009803 -21 8 C-18.80078125 7.41015625 -18.80078125 7.41015625 -16.3125 7.0625 C-10.04970019 5.97291933 -5.24877271 3.49918181 0 0 Z " fill="#CFA4CC" transform="translate(378,465)"/>
<path d="M0 0 C0.66 0 1.32 0 2 0 C2.0896267 3.85394798 1.82470749 7.24299922 1 11 C0.65596692 13.33177975 0.32050798 15.66487041 0 18 C-0.66 18 -1.32 18 -2 18 C-2.0825 18.886875 -2.165 19.77375 -2.25 20.6875 C-3.10870324 24.48010597 -4.59148577 26.00760353 -7 29 C-7.42605675 30.60590619 -7.84878402 32.21296217 -8.23828125 33.828125 C-10.23391344 39.51823523 -13.72966639 45.72966639 -18 50 C-18.45320079 51.66660935 -18.90509191 53.33359387 -19.34814453 55.00292969 C-20.53450265 58.63753994 -22.51418349 61.83765126 -24.4375 65.125 C-25.03014648 66.15947266 -25.03014648 66.15947266 -25.63476562 67.21484375 C-26.40061609 68.54775488 -27.17170777 69.87767224 -27.94873047 71.20410156 C-28.866179 72.77139172 -29.76481091 74.34966631 -30.66015625 75.9296875 C-32 78 -32 78 -34 79 C-31.79353353 70.25155401 -28.25925999 62.2538592 -23.5 54.58203125 C-21.70443646 51.49123048 -20.39597503 48.29001151 -19 45 C-17.74587975 42.43899716 -16.43140875 39.9096456 -15.125 37.375 C-11.9732713 31.19460045 -9.32980328 25.0203547 -7.0078125 18.4765625 C-6 16 -6 16 -4 14 C-3.21983276 11.62533036 -2.51940455 9.28555037 -1.875 6.875 C-1.69324219 6.21628906 -1.51148438 5.55757812 -1.32421875 4.87890625 C-0.87684563 3.25423544 -0.43763465 1.62732107 0 0 Z " fill="#B1CDEB" transform="translate(418,223)"/>
<path d="M0 0 C0.33 0 0.66 0 1 0 C1 3.3 1 6.6 1 10 C0.34 10 -0.32 10 -1 10 C-1.17015625 10.6290625 -1.3403125 11.258125 -1.515625 11.90625 C-2.95243132 16.98092765 -4.59262924 21.58347187 -7.1328125 26.2109375 C-8.07473894 27.99248659 -8.07473894 27.99248659 -8.4921875 30.0390625 C-9 32 -9 32 -11 35 C-11.29619625 36.36579383 -11.5419613 37.74302862 -11.75 39.125 C-12.85005639 44.61626509 -15.67799681 48.58110896 -19 53 C-19.66 52.34 -20.32 51.68 -21 51 C-20.828125 48.6875 -20.828125 48.6875 -20.25 46 C-20.06953125 45.113125 -19.8890625 44.22625 -19.703125 43.3125 C-19 41 -19 41 -17 39 C-15.91853043 36.36373864 -14.90526956 33.73976031 -13.9375 31.0625 C-13.66873047 30.33353516 -13.39996094 29.60457031 -13.12304688 28.85351562 C-12.04274572 25.91434216 -10.99027176 22.97081527 -10 20 C-9.34 20 -8.68 20 -8 20 C-7.79375 18.741875 -7.5875 17.48375 -7.375 16.1875 C-6.07741439 10.19570763 -3.10697591 5.22714501 0 0 Z " fill="#AEC9E9" transform="translate(383,302)"/>
<path d="M0 0 C-1.84254328 2.35436086 -2.7405422 2.95872262 -5.75 3.4375 C-8.78345887 3.96252173 -9.99950773 4.48033011 -12.5 6.0625 C-15.8790211 8.11929545 -18.01421779 8.07664966 -22 8 C-23.78120398 8.43904872 -25.55155614 8.92317704 -27.3125 9.4375 C-31.58533822 10.68325937 -35.58970366 11.41768266 -40.02734375 11.69140625 C-42.07246944 11.90053881 -42.07246944 11.90053881 -43.9609375 13.046875 C-46.49012373 14.22909998 -47.93903345 14.05484738 -50.6875 13.6875 C-51.55503906 13.57921875 -52.42257812 13.4709375 -53.31640625 13.359375 C-54.64478516 13.18148438 -54.64478516 13.18148438 -56 13 C-57.70792687 12.80883293 -59.41623921 12.62106356 -61.125 12.4375 C-62.40375 12.293125 -63.6825 12.14875 -65 12 C-61.31513232 9.54342155 -59.34986453 9.92368659 -55 10 C-54.360625 9.835 -53.72125 9.67 -53.0625 9.5 C-51 9 -51 9 -47.5625 9.125 C-42.71938793 9.18743423 -38.31485868 8.01430576 -33.63671875 6.8515625 C-30.39162707 6.09170215 -27.16774425 5.48107392 -23.88574219 4.91821289 C-17.57927219 3.83619137 -11.81888983 2.47205173 -6.015625 -0.328125 C-3.6115172 -1.12949427 -2.35721952 -0.82821226 0 0 Z " fill="#C8ABD1" transform="translate(397,440)"/>
<path d="M0 0 C5.28 0 10.56 0 16 0 C16 0.33 16 0.66 16 1 C15.31832764 0.96704834 14.63665527 0.93409668 13.93432617 0.90014648 C7.90219609 0.97146795 4.44511816 1.85749078 -0.01171875 6.03515625 C-1.59674879 7.68595517 -3.15518899 9.36265288 -4.6875 11.0625 C-5.49638672 11.91650391 -6.30527344 12.77050781 -7.13867188 13.65039062 C-9.11719726 15.74598852 -11.06852761 17.8611169 -13 20 C-13.99 19.67 -14.98 19.34 -16 19 C-16.66 19.33 -17.32 19.66 -18 20 C-16.5056292 16.35798155 -14.42332178 14.3959346 -11.4375 11.875 C-8.2525427 9.30529501 -8.2525427 9.30529501 -6 6 C-5.175 5.525625 -4.35 5.05125 -3.5 4.5625 C-0.70844517 3.18680459 -0.70844517 3.18680459 0 0 Z " fill="#E4C0DA" transform="translate(235,221)"/>
<path d="M0 0 C0.33 0 0.66 0 1 0 C1.04898438 0.81082031 1.09796875 1.62164062 1.1484375 2.45703125 C1.50450463 7.73050821 1.89096173 12.84024636 3.0625 18 C4.84108387 26.8138712 4.16198212 36.05235707 4 45 C3.01 44.67 2.02 44.34 1 44 C-0.20844047 41.58311906 0.05565734 40.6398999 0.4375 38 C1.47729234 29.40803172 0.87200927 21.66337118 -0.55078125 13.13671875 C-1.14179537 9.00989844 -1.20805949 5.16118985 -1 1 C-0.67 0.67 -0.34 0.34 0 0 Z " fill="#AF93C5" transform="translate(187,192)"/>
<path d="M0 0 C3.63 0 7.26 0 11 0 C4.48275862 13.51724138 4.48275862 13.51724138 0 18 C0 12.06 0 6.12 0 0 Z " fill="#FDFCFD" transform="translate(303,222)"/>
<path d="M0 0 C0.66 0 1.32 0 2 0 C8.29926903 21.33352444 8.29926903 21.33352444 6 30 C5.00585407 31.67016516 4.0064275 33.33720673 3 35 C3 35.886875 3 36.77375 3 37.6875 C3 38.450625 3 39.21375 3 40 C2.01 40.66 1.02 41.32 0 42 C-0.08131463 40.56344146 -0.13933559 39.1255517 -0.1875 37.6875 C-0.22230469 36.88699219 -0.25710937 36.08648437 -0.29296875 35.26171875 C0 33 0 33 1.484375 31.640625 C4.51788156 28.35693234 3.48976986 23.27366727 3.375 19.01953125 C3.05914541 14.16675068 1.59919591 9.88084648 -0.22265625 5.390625 C-1 3 -1 3 0 0 Z " fill="#B889BD" transform="translate(178,199)"/>
<path d="M0 0 C-0.68964844 0.17015625 -1.37929688 0.3403125 -2.08984375 0.515625 C-6.83910727 1.74040078 -11.19505977 2.9958373 -15.5625 5.25 C-20.59468945 7.60911912 -24.65761877 6.91536127 -30 6 C-31.70719816 5.80243107 -33.41553048 5.61434167 -35.125 5.4375 C-36.40375 5.293125 -37.6825 5.14875 -39 5 C-35.31513232 2.54342155 -33.34986453 2.92368659 -29 3 C-28.360625 2.835 -27.72125 2.67 -27.0625 2.5 C-25 2 -25 2 -21.5625 2.125 C-16.49079391 2.23006359 -11.82363071 0.85701056 -6.953125 -0.44140625 C-4.12562913 -0.97623682 -2.65953724 -0.97473331 0 0 Z " fill="#D5B1D3" transform="translate(371,447)"/>
<path d="M0 0 C1.09882352 3.29647055 0.96025087 3.8348792 -0.14453125 6.94921875 C-0.40943359 7.71556641 -0.67433594 8.48191406 -0.94726562 9.27148438 C-1.23279297 10.06876953 -1.51832031 10.86605469 -1.8125 11.6875 C-3.83063823 17.41901256 -5.6131322 23.08044231 -7 29 C-8.32 29.33 -9.64 29.66 -11 30 C-9.29984421 23.94641499 -7.31272604 18.13814168 -4.91015625 12.328125 C-4.09804761 10.2507999 -3.4493426 8.21515415 -2.875 6.0625 C-2 3 -2 3 0 0 Z " fill="#664A8F" transform="translate(265,18)"/>
<path d="M0 0 C2.97 0.495 2.97 0.495 6 1 C4.51364884 5.21654356 2.38750841 8.62478605 -0.125 12.3125 C-0.84945313 13.38113281 -1.57390625 14.44976563 -2.3203125 15.55078125 C-3.15175781 16.76314453 -3.15175781 16.76314453 -4 18 C-5.35814777 13.9255567 -3.94745762 11.18531884 -2.5625 7.3125 C-2.31951172 6.61060547 -2.07652344 5.90871094 -1.82617188 5.18554688 C-1.2255056 3.45421468 -0.61380281 1.72671863 0 0 Z " fill="#F8F1E8" transform="translate(339,515)"/>
<path d="M0 0 C0.66 0 1.32 0 2 0 C5.85880936 6.75291638 5.28506966 13.38758424 5 21 C4.01 21.33 3.02 21.66 2 22 C1.93941406 20.91460937 1.87882813 19.82921875 1.81640625 18.7109375 C1.73193936 17.26561514 1.64729449 15.82030318 1.5625 14.375 C1.52318359 13.66214844 1.48386719 12.94929687 1.44335938 12.21484375 C1.19690319 8.08196318 0.76529947 4.07730976 0 0 Z " fill="#DEB1D2" transform="translate(177,207)"/>
<path d="M0 0 C0.66 0.33 1.32 0.66 2 1 C-0.51331305 4.76996958 -3.29998115 5.55366253 -7.375 7.0625 C-12.41682071 8.94023648 -12.41682071 8.94023648 -17.3046875 11.17578125 C-19.58449944 12.28416908 -21.50287332 12.13872926 -24 12 C-22.46279688 9.53251538 -21.6287792 8.1965633 -18.80078125 7.3125 C-17.97964844 7.209375 -17.15851563 7.10625 -16.3125 7 C-10.02260403 5.97007551 -5.26093233 3.50728822 0 0 Z " fill="#BF91C2" transform="translate(378,465)"/>
<path d="M0 0 C-1.84254328 2.35436086 -2.7405422 2.95872262 -5.75 3.4375 C-8.82074048 3.96897431 -9.98893922 4.49725485 -12.5 6.125 C-16.39729075 8.21283433 -17.84759901 8.21533688 -22 7 C-22 6.67 -22 6.34 -22 6 C-21.07767578 5.83564453 -21.07767578 5.83564453 -20.13671875 5.66796875 C-19.32847656 5.50941406 -18.52023437 5.35085938 -17.6875 5.1875 C-16.88699219 5.03667969 -16.08648437 4.88585937 -15.26171875 4.73046875 C-12.72545963 3.91133152 -11.7813173 2.92642461 -10 1 C-6.31010622 -0.57016757 -3.82661288 -1.47177418 0 0 Z " fill="#BDA1CC" transform="translate(397,440)"/>
<path d="M0 0 C0.66 0.33 1.32 0.66 2 1 C-0.97 3.475 -0.97 3.475 -4 6 C-2.84826645 3.53199953 -1.95216435 1.95216435 0 0 Z M-8 8 C-7.34 8.33 -6.68 8.66 -6 9 C-9.3 12.3 -12.6 15.6 -16 19 C-16.66 18.34 -17.32 17.68 -18 17 C-14.99482576 13.13620455 -12.54918935 10.09016808 -8 8 Z " fill="#F0D1E3" transform="translate(238,222)"/>
<path d="M0 0 C0.33 0 0.66 0 1 0 C0.83112554 7.43047616 -3.13184348 12.84932815 -7 19 C-8.140625 15.265625 -8.140625 15.265625 -6.875 12.875 C-6.25625 11.92625 -5.6375 10.9775 -5 10 C-3.28645175 6.68985191 -1.64347782 3.34541929 0 0 Z " fill="#B1C5E6" transform="translate(409,252)"/>
<path d="M0 0 C0.33 0.66 0.66 1.32 1 2 C3.31 1.34 5.62 0.68 8 0 C6.92598892 2.91517292 6.22189824 4.77810176 4 7 C1.375 6.625 1.375 6.625 -1 6 C-0.67 4.02 -0.34 2.04 0 0 Z " fill="#EBC7D9" transform="translate(341,510)"/>
<path d="M0 0 C1.32 0.66 2.64 1.32 4 2 C4.33 1.34 4.66 0.68 5 0 C5.99 1.98 6.98 3.96 8 6 C5.21176345 7.0326802 4.1322726 7.04509293 1.25 6.0625 C0.5075 5.711875 -0.235 5.36125 -1 5 C-0.67 3.35 -0.34 1.7 0 0 Z " fill="#C2D2EC" transform="translate(304,370)"/>
<path d="M0 0 C0.66 0.33 1.32 0.66 2 1 C1.28972656 1.84304688 0.57945312 2.68609375 -0.15234375 3.5546875 C-1.08083279 4.6613714 -2.00921254 5.76814701 -2.9375 6.875 C-3.40607422 7.43058594 -3.87464844 7.98617187 -4.35742188 8.55859375 C-6.94066519 11.60061835 -6.94066519 11.60061835 -9 15 C-9.66 14.67 -10.32 14.34 -11 14 C-9.73636527 12.03701399 -8.4638372 10.07975066 -7.1875 8.125 C-6.47980469 7.03445313 -5.77210938 5.94390625 -5.04296875 4.8203125 C-3 2 -3 2 0 0 Z " fill="#876AAC" transform="translate(343,522)"/>
<path d="M0 0 C1.06287862 3.20299909 0.96603992 4.98952451 -0.25 8.125 C-0.50265625 8.80820312 -0.7553125 9.49140625 -1.015625 10.1953125 C-2 12 -2 12 -5 14 C-4.54636829 12.41531323 -4.08688548 10.83230076 -3.625 9.25 C-3.36976563 8.36828125 -3.11453125 7.4865625 -2.8515625 6.578125 C-2.0790066 4.23919428 -1.16374324 2.16557438 0 0 Z " fill="#B0D2EE" transform="translate(389,288)"/>
<path d="M0 0 C0.33 0 0.66 0 1 0 C1.33 4.29 1.66 8.58 2 13 C1.67 12.01 1.34 11.02 1 10 C0.34 10 -0.32 10 -1 10 C-1.02689216 8.52093108 -1.04634621 7.04172517 -1.0625 5.5625 C-1.07410156 4.73878906 -1.08570313 3.91507813 -1.09765625 3.06640625 C-1 1 -1 1 0 0 Z " fill="#B99DCA" transform="translate(187,192)"/>
<path d="M0 0 C0.66 0 1.32 0 2 0 C2.5497272 5.63470383 0.95047835 8.38987758 -2 13 C-3.18414294 9.44757118 -2.69535532 8.30169438 -1.5625 4.8125 C-1.27503906 3.91144531 -0.98757813 3.01039063 -0.69140625 2.08203125 C-0.46324219 1.39496094 -0.23507812 0.70789063 0 0 Z " fill="#B3CFEC" transform="translate(418,223)"/>
<path d="M0 0 C1.65 1.65 3.3 3.3 5 5 C2.25 5.6875 2.25 5.6875 -1 6 C-3.375 4.5625 -3.375 4.5625 -5 3 C-4.360625 2.87625 -3.72125 2.7525 -3.0625 2.625 C-2.0415625 2.315625 -2.0415625 2.315625 -1 2 C-0.67 1.34 -0.34 0.68 0 0 Z " fill="#C6D5EE" transform="translate(277,359)"/>
<path d="M0 0 C0.33 0.66 0.66 1.32 1 2 C1.99 2 2.98 2 4 2 C4.33 3.32 4.66 4.64 5 6 C4.01 5.67 3.02 5.34 2 5 C2 4.34 2 3.68 2 3 C1.34 3 0.68 3 0 3 C0 3.66 0 4.32 0 5 C-0.99 5.33 -1.98 5.66 -3 6 C-1.125 1.125 -1.125 1.125 0 0 Z " fill="#D2C9E3" transform="translate(230,352)"/>
<path d="M0 0 C0.33 0 0.66 0 1 0 C1.56531239 4.8051553 -0.11675084 7.24303897 -3 11 C-3.33 11 -3.66 11 -4 11 C-4.1875 8.6875 -4.1875 8.6875 -4 6 C-2.5625 4.375 -2.5625 4.375 -1 3 C-0.67 2.01 -0.34 1.02 0 0 Z " fill="#B1BFE2" transform="translate(388,296)"/>
<path d="M0 0 C0.99 0 1.98 0 3 0 C3.99 1.98 4.98 3.96 6 6 C3.03 5.505 3.03 5.505 0 5 C0 3.33333333 0 1.66666667 0 0 Z " fill="#CAD7EE" transform="translate(244,350)"/>
<path d="M0 0 C1.32 0 2.64 0 4 0 C2.63016497 3.16115776 2.0109362 3.9927092 -1 6 C-1 2 -1 2 0 0 Z " fill="#B7C3E3" transform="translate(421,218)"/>
<path d="M0 0 C0.66 0.33 1.32 0.66 2 1 C0.71937515 2.7074998 -0.61767557 4.37373596 -2 6 C-2.66 6 -3.32 6 -4 6 C-2.84826645 3.53199953 -1.95216435 1.95216435 0 0 Z M-7 7 C-5 8 -5 8 -5 8 Z " fill="#DEC1DB" transform="translate(295,228)"/>
<path d="M0 0 C0.99 0.33 1.98 0.66 3 1 C2.67 2.65 2.34 4.3 2 6 C0.68 6.33 -0.64 6.66 -2 7 C-1.34 4.69 -0.68 2.38 0 0 Z " fill="#745A98" transform="translate(256,41)"/>
<path d="M0 0 C2.97 0.495 2.97 0.495 6 1 C5.34 2.32 4.68 3.64 4 5 C4 4.34 4 3.68 4 3 C2.68 3.33 1.36 3.66 0 4 C0 2.68 0 1.36 0 0 Z " fill="#F2DDE1" transform="translate(339,515)"/>
<path d="M0 0 C0.33 0.66 0.66 1.32 1 2 C3.31 1.34 5.62 0.68 8 0 C7.34 1.32 6.68 2.64 6 4 C4.02 4 2.04 4 0 4 C0 2.68 0 1.36 0 0 Z " fill="#E5B6D3" transform="translate(341,510)"/>
</svg>
